<?xml version="1.0" encoding="UTF-8" standalone="no"?>
<svg
   xmlns:dc="http://purl.org/dc/elements/1.1/"
   xmlns:cc="http://creativecommons.org/ns#"
   xmlns:rdf="http://www.w3.org/1999/02/22-rdf-syntax-ns#"
   xmlns:svg="http://www.w3.org/2000/svg"
   xmlns="http://www.w3.org/2000/svg"
   viewBox="0 0 32.493332 31.453333"
   height="31.453333"
   width="32.493332"
   xml:space="preserve"
   id="svg2"
   version="1.1"><metadata
     id="metadata8"><rdf:RDF><cc:Work
         rdf:about=""><dc:format>image/svg+xml</dc:format><dc:type
           rdf:resource="http://purl.org/dc/dcmitype/StillImage" /></cc:Work></rdf:RDF></metadata><defs
     id="defs6" /><g
     transform="matrix(1.3333333,0,0,-1.3333333,0,31.453333)"
     id="g10"><g
       transform="translate(72,-48.407)"
       id="g12"><g
         transform="translate(-59.813,59.402)"
         id="g14"><g
           id="g16"><g
             id="g18"><path
               id="path20"
               style="fill:#000000;fill-opacity:1;fill-rule:nonzero;stroke:none"
               d="m 0,12.59851 c -2.31932,0 -4.1995,-1.88017 -4.1995,-4.19951 0,-2.31932 1.88018,-4.19949 4.1995,-4.19949 2.31932,0 4.1995,1.88017 4.1995,4.19949 0,2.31934 -1.88018,4.19951 -4.1995,4.19951 z" /><path
               id="path22"
               style="fill:#000000;fill-opacity:1;fill-rule:nonzero;stroke:none"
               d="M 0.18597,9.5711 -8.48059,3.27478 -7.98698,2.59537 0.67957,8.8917 Z" /><path
               id="path24"
               style="fill:#000000;fill-opacity:1;fill-rule:nonzero;stroke:none"
               d="m -7.988,6.79495 c -2.31934,0 -4.19952,-1.88015 -4.19952,-4.19949 0,-2.31934 1.88018,-4.19949 4.19952,-4.19949 2.31933,0 4.19949,1.88015 4.19949,4.19949 0,2.31934 -1.88016,4.19949 -4.19949,4.19949 z" /><path
               id="path26"
               style="fill:#000000;fill-opacity:1;fill-rule:nonzero;stroke:none"
               d="m -9.04549,3.13437 3.31037,-10.18823 0.7987,0.25952 -3.31036,10.18822 z" /><path
               id="path28"
               style="fill:#000000;fill-opacity:1;fill-rule:nonzero;stroke:none"
               d="m -4.93678,-2.59547 c -2.31934,0 -4.19951,-1.88016 -4.19951,-4.1995 0,-2.31933 1.88017,-4.19951 4.19951,-4.19951 2.31933,0 4.19949,1.88018 4.19949,4.19951 0,2.31934 -1.88016,4.1995 -4.19949,4.1995 z" /><path
               id="path30"
               style="fill:#000000;fill-opacity:1;fill-rule:nonzero;stroke:none"
               d="M -5.77669,-7.63486 H 4.93678 v 0.83989 H -5.77669 Z" /><path
               id="path32"
               style="fill:#000000;fill-opacity:1;fill-rule:nonzero;stroke:none"
               d="m 4.93678,-2.59547 c -2.31933,0 -4.19949,-1.88016 -4.19949,-4.1995 0,-2.31933 1.88016,-4.19951 4.19949,-4.19951 2.31934,0 4.19951,1.88018 4.19951,4.19951 0,2.31934 -1.88017,4.1995 -4.19951,4.1995 z" /><path
               id="path34"
               style="fill:#000000;fill-opacity:1;fill-rule:nonzero;stroke:none"
               d="M 5.4756,-7.85257 8.78598,2.33565 7.98726,2.59517 4.6769,-7.59306 Z" /><path
               id="path36"
               style="fill:#000000;fill-opacity:1;fill-rule:nonzero;stroke:none"
               d="m 7.988,6.79495 c -2.31933,0 -4.19949,-1.88015 -4.19949,-4.19949 0,-2.31934 1.88016,-4.19949 4.19949,-4.19949 2.31934,0 4.19952,1.88015 4.19952,4.19949 0,2.31934 -1.88018,4.19949 -4.19952,4.19949 z" /><path
               id="path38"
               style="fill:#000000;fill-opacity:1;fill-rule:nonzero;stroke:none"
               d="M 9.16,2.78117 0.49344,9.0775 -1.4e-4,8.39809 8.66641,2.10176 Z" /><g
               id="g40"><path
                 id="path42"
                 style="fill:#9c27e0;fill-opacity:1;fill-rule:nonzero;stroke:none"
                 d="m 0,11.92659 c -1.94823,0 -3.52756,-1.57933 -3.52756,-3.52757 0,-1.94823 1.57933,-3.52756 3.52756,-3.52756 1.94823,0 3.52756,1.57933 3.52756,3.52756 0,1.94824 -1.57933,3.52757 -3.52756,3.52757" /></g><g
               id="g44"><path
                 id="path46"
                 style="fill:#e3c129;fill-opacity:1;fill-rule:nonzero;stroke:none"
                 d="m 0,11.92659 c 1.94823,0 3.52756,-1.57933 3.52756,-3.52757 C 3.52756,6.45079 1.94823,4.87146 0,4.87146" /></g><g
               id="g48"><path
                 id="path50"
                 style="fill:#2f40de;fill-opacity:1;fill-rule:nonzero;stroke:none"
                 d="m -7.988,6.12303 c -1.94825,0 -3.52756,-1.57931 -3.52756,-3.52756 0,-1.94824 1.57931,-3.52754 3.52756,-3.52754 1.94824,0 3.52755,1.5793 3.52755,3.52754 0,1.94825 -1.57931,3.52756 -3.52755,3.52756" /></g><g
               id="g52"><path
                 id="path54"
                 style="fill:#27cc32;fill-opacity:1;fill-rule:nonzero;stroke:none"
                 d="m -7.988,6.12303 c 1.94824,0 3.52755,-1.57931 3.52755,-3.52756 0,-1.94824 -1.57931,-3.52754 -3.52755,-3.52754" /></g><g
               id="g56"><path
                 id="path58"
                 style="fill:#e3c129;fill-opacity:1;fill-rule:nonzero;stroke:none"
                 d="m -4.93678,-3.2674 c -1.94825,0 -3.52756,-1.57931 -3.52756,-3.52755 0,-1.94825 1.57931,-3.52756 3.52756,-3.52756 1.94822,0 3.52755,1.57931 3.52755,3.52756 0,1.94824 -1.57933,3.52755 -3.52755,3.52755" /></g><g
               id="g60"><path
                 id="path62"
                 style="fill:#de1616;fill-opacity:1;fill-rule:nonzero;stroke:none"
                 d="m -4.93678,-3.2674 c 1.94822,0 3.52755,-1.57931 3.52755,-3.52755 0,-1.94825 -1.57933,-3.52756 -3.52755,-3.52756" /></g><g
               id="g64"><path
                 id="path66"
                 style="fill:#27cc32;fill-opacity:1;fill-rule:nonzero;stroke:none"
                 d="m 4.93678,-3.2674 c -1.94822,0 -3.52755,-1.57931 -3.52755,-3.52755 0,-1.94825 1.57933,-3.52756 3.52755,-3.52756 1.94825,0 3.52756,1.57931 3.52756,3.52756 0,1.94824 -1.57931,3.52755 -3.52756,3.52755" /></g><g
               id="g68"><path
                 id="path70"
                 style="fill:#9c27e0;fill-opacity:1;fill-rule:nonzero;stroke:none"
                 d="m 4.93678,-3.2674 c 1.94825,0 3.52756,-1.57931 3.52756,-3.52755 0,-1.94825 -1.57931,-3.52756 -3.52756,-3.52756" /></g><g
               id="g72"><path
                 id="path74"
                 style="fill:#de1616;fill-opacity:1;fill-rule:nonzero;stroke:none"
                 d="m 7.988,6.12303 c -1.94824,0 -3.52755,-1.57931 -3.52755,-3.52756 0,-1.94824 1.57931,-3.52754 3.52755,-3.52754 1.94825,0 3.52756,1.5793 3.52756,3.52754 0,1.94825 -1.57931,3.52756 -3.52756,3.52756" /></g><g
               id="g76"><path
                 id="path78"
                 style="fill:#2f40de;fill-opacity:1;fill-rule:nonzero;stroke:none"
                 d="m 7.988,6.12303 c 1.94825,0 3.52756,-1.57931 3.52756,-3.52756 0,-1.94824 -1.57931,-3.52754 -3.52756,-3.52754" /></g></g></g></g></g></g></svg>